<svg xmlns="http://www.w3.org/2000/svg" viewBox="0 0 156 47.89"><defs><style>.cls-1{fill:#00f7ef;}.cls-2{fill:#ff004f;}</style></defs><g id="图层_2" data-name="图层 2"><g id="图层_1-2" data-name="图层 1"><path class="cls-1" d="M16.48,18.86V17a14.25,14.25,0,0,0-2-.15A14.51,14.51,0,0,0,6.2,43.25,14.5,14.5,0,0,1,16.48,18.86"/><path class="cls-1" d="M40,12.73V11A10.9,10.9,0,0,1,34,9.2a10.92,10.92,0,0,0,6,3.53"/><path class="cls-2" d="M34,9.2A10.94,10.94,0,0,1,31.34,2H29.23A11,11,0,0,0,34,9.2"/><path class="cls-2" d="M14.52,24.73a6.63,6.63,0,0,0-3.08,12.5,6.62,6.62,0,0,1,5.38-10.49,6.69,6.69,0,0,1,2,.3V19a14.24,14.24,0,0,0-2-.14h-.34V25a6.7,6.7,0,0,0-2-.31"/><path class="cls-1" d="M16.82,40a6.64,6.64,0,0,0,6.62-6.38V2h5.78A10.2,10.2,0,0,1,29,0H21.15V31.61A6.64,6.64,0,0,1,14.52,38a6.54,6.54,0,0,1-3.08-.77A6.65,6.65,0,0,0,16.82,40"/><path class="cls-2" d="M40,12.73v6.13a18.74,18.74,0,0,1-11-3.53v16A14.51,14.51,0,0,1,6.2,43.25a14.51,14.51,0,0,0,25.14-9.88v-16a18.74,18.74,0,0,0,11,3.52V13a11,11,0,0,1-2.3-.25"/><path d="M29,31.36v-16a18.74,18.74,0,0,0,11,3.53V12.73A10.92,10.92,0,0,1,34,9.2,11,11,0,0,1,29.23,2H23.45V33.62a6.62,6.62,0,0,1-12,3.61,6.63,6.63,0,0,1,3.08-12.5,6.7,6.7,0,0,1,2,.31V18.86A14.5,14.5,0,0,0,6.2,43.25,14.51,14.51,0,0,0,29,31.36"/><polygon points="153.72 26.46 151 26.46 153.28 41.66 156 41.66 153.72 26.46"/><polygon points="132.35 41.99 135.07 41.99 137.36 26.79 134.64 26.79 132.35 41.99"/><path d="M142,41.4V23.06H139.4V41.6a3.52,3.52,0,0,0,3.52,3.53h8.73V42.5h-8.53A1.1,1.1,0,0,1,142,41.4Z"/><polygon points="149.18 36.37 146.91 21.38 144.19 21.38 146.46 36.37 149.18 36.37"/><path d="M126.59,25.11H119V21.38h-3v3.73h-7.61A2.31,2.31,0,0,0,106,27.42v9.44a2.3,2.3,0,0,0,2.31,2.3H116v6.19h3V39.16h7.61a2.3,2.3,0,0,0,2.31-2.3V27.42A2.31,2.31,0,0,0,126.59,25.11ZM109.76,36.58a.93.93,0,0,1-.92-.93v-7a.92.92,0,0,1,.92-.92H116v8.88Zm16.33-.93a.93.93,0,0,1-.92.93H119V27.7h6.19a.92.92,0,0,1,.92.92Z"/><path d="M57.32,28a.62.62,0,0,1,.62-.62H73.56a.62.62,0,0,1,.62.62V32.4h2.71V26.86a2.21,2.21,0,0,0-2.2-2.21H73.06l1.27-3.27H71.45l-1.28,3.27H66.58l-1.27-3.27H62.42l1.27,3.27H60.61l-1.27-3.27H56.45l1.27,3.27h-.91a2.21,2.21,0,0,0-2.2,2.21V32.4h2.71Z"/><path d="M72.09,32a1.34,1.34,0,0,0-.83-2.39H58.9v2.68h8.49l-1.94,1.55a1.31,1.31,0,0,0-.51,1.05v.64H54.31v2.69H64.94v4.18H61.06v2.69h5.22a1.35,1.35,0,0,0,1.35-1.34V38.25h9.56V35.56H67.64Z"/><polygon points="96.99 32.03 80.63 39.74 80.63 43.08 96.99 35.38 96.99 32.03"/><path d="M99.7,22.05H80.63v2.79h18a.58.58,0,0,1,.57.58v15.9a1,1,0,0,1-1,1H93.71v2.8h4.63A3.62,3.62,0,0,0,102,41.51V24.3A2.25,2.25,0,0,0,99.7,22.05Z"/><polygon points="87.39 26.28 83.96 26.28 87.83 33.58 91.26 33.58 87.39 26.28"/><path d="M57.31,2.62H55.93V4.67H54.31V6.05h1.62V8.89l-1.62.24V10.6l1.62-.24v2.43a.35.35,0,0,1-.35.35H54.51v1.38h1.64a1.16,1.16,0,0,0,1.16-1.16V10.15l1.41-.21V8.47l-1.41.21V6.05h1.41V4.67H57.31Z"/><polygon points="65.2 2.62 63.81 2.62 63.81 9.89 59.24 10.29 59.24 11.76 63.81 11.36 63.81 14.53 65.2 14.53 65.2 11.24 66.61 11.11 66.61 9.64 65.2 9.77 65.2 2.62"/><polygon points="63.09 4.24 59.81 3.65 59.81 5.12 63.09 5.71 63.09 4.24"/><polygon points="63.09 7.29 59.81 6.71 59.81 8.17 63.09 8.76 63.09 7.29"/><polygon points="77.36 6.64 77.63 5.54 76.16 5.54 75.89 6.64 72.05 6.64 71.78 5.54 70.31 5.54 70.58 6.64 67.81 6.64 67.81 8.03 80.07 8.03 80.07 6.64 77.36 6.64"/><polygon points="79.69 3.54 75.03 3.54 74.8 2.62 73 2.62 73.22 3.54 68.2 3.54 68.2 4.93 79.69 4.93 79.69 3.54"/><path d="M77.8,9H70.09a1.16,1.16,0,0,0-1.17,1.16v3.17a1.17,1.17,0,0,0,1.17,1.17H77.8A1.17,1.17,0,0,0,79,13.36V10.19A1.16,1.16,0,0,0,77.8,9Zm-.14,3.9a.35.35,0,0,1-.35.35H70.58a.35.35,0,0,1-.35-.35v-.57h7.43Zm0-1.73H70.23v-.57a.35.35,0,0,1,.35-.35h6.73a.35.35,0,0,1,.35.35Z"/><polygon points="101.96 2.62 100.14 2.62 100.4 3.53 94.98 3.53 94.98 4.86 107.24 4.86 107.24 3.53 102.21 3.53 101.96 2.62"/><path d="M104.44,10.33a1.08,1.08,0,0,0-.26-.7H105l-1.13-2h-1.53l.9,1.57H98.94l.88-1.57H98.29l-1.1,2h.94a1.08,1.08,0,0,0-.26.7v1.72a1.1,1.1,0,0,0,1.1,1.1h4.38a1.09,1.09,0,0,0,1.09-1.1Zm-1.3,1.27a.22.22,0,0,1-.22.22H99.39a.21.21,0,0,1-.21-.22v-.82a.21.21,0,0,1,.21-.21h3.53a.21.21,0,0,1,.22.21Z"/><path d="M105.81,6h-1.63l.14-.78h-1.46l-.14.78H99.4l-.14-.78H97.8l.14.78H96.43a1.09,1.09,0,0,0-1.09,1.1v7.47h1.38V7.62a.34.34,0,0,1,.34-.34h8.12a.34.34,0,0,1,.34.34v5.09a.56.56,0,0,1-.56.55h-.6v1.33h.75a1.79,1.79,0,0,0,1.79-1.78V7.05A1.09,1.09,0,0,0,105.81,6Z"/><path d="M88.38,13.19a.35.35,0,0,1-.35-.35V2.64H86.67V13.39a1.15,1.15,0,0,0,1.14,1.15h5.56V13.19Z"/><path d="M81.6,5v5.47a1.15,1.15,0,0,0,1.14,1.15H92a1.15,1.15,0,0,0,1.14-1.15V5A1.15,1.15,0,0,0,92,3.84H82.74A1.15,1.15,0,0,0,81.6,5ZM83,10V5.5a.35.35,0,0,1,.35-.34h8.08a.35.35,0,0,1,.35.34V10a.35.35,0,0,1-.35.34H83.31A.35.35,0,0,1,83,10Z"/><rect x="82.48" y="7.07" width="9.74" height="1.32"/></g></g></svg>